<mxfile host="app.diagrams.net" modified="2021-09-14T23:53:19.909Z" agent="5.0 (Windows NT 10.0; Win64; x64) AppleWebKit/537.36 (KHTML, like Gecko) Chrome/95.0.4636.4 Safari/537.36" etag="fWV5-Ar3XLJKx9v_abns" version="15.2.5" type="github">
  <diagram id="jJO3wETio5ByXQ1Pjca3" name="Page-1">
    <mxGraphModel dx="868" dy="450" grid="1" gridSize="10" guides="1" tooltips="1" connect="1" arrows="1" fold="1" page="1" pageScale="1" pageWidth="827" pageHeight="1169" math="0" shadow="0">
      <root>
        <mxCell id="0" />
        <mxCell id="1" parent="0" />
        <mxCell id="yWgnl33uVXO1nEddIgM3-5" value="" style="edgeStyle=orthogonalEdgeStyle;rounded=0;orthogonalLoop=1;jettySize=auto;html=1;" edge="1" parent="1" source="yWgnl33uVXO1nEddIgM3-1">
          <mxGeometry relative="1" as="geometry">
            <mxPoint x="413" y="400" as="targetPoint" />
            <Array as="points">
              <mxPoint x="413" y="370" />
              <mxPoint x="413" y="370" />
            </Array>
          </mxGeometry>
        </mxCell>
        <mxCell id="yWgnl33uVXO1nEddIgM3-1" value="Encender una lampara&lt;span style=&quot;white-space: pre&quot;&gt;	&lt;/span&gt;de escritorio" style="ellipse;whiteSpace=wrap;html=1;" vertex="1" parent="1">
          <mxGeometry x="340" y="232" width="147" height="100" as="geometry" />
        </mxCell>
        <mxCell id="yWgnl33uVXO1nEddIgM3-8" value="" style="edgeStyle=orthogonalEdgeStyle;rounded=0;orthogonalLoop=1;jettySize=auto;html=1;" edge="1" parent="1" source="yWgnl33uVXO1nEddIgM3-4">
          <mxGeometry relative="1" as="geometry">
            <mxPoint x="414" y="980" as="targetPoint" />
          </mxGeometry>
        </mxCell>
        <mxCell id="yWgnl33uVXO1nEddIgM3-12" value="" style="edgeStyle=orthogonalEdgeStyle;rounded=0;orthogonalLoop=1;jettySize=auto;html=1;" edge="1" parent="1" source="yWgnl33uVXO1nEddIgM3-4">
          <mxGeometry relative="1" as="geometry">
            <mxPoint x="760" y="470" as="targetPoint" />
          </mxGeometry>
        </mxCell>
        <mxCell id="yWgnl33uVXO1nEddIgM3-4" value="La lampara tiene baterÃ­a?" style="shape=parallelogram;perimeter=parallelogramPerimeter;whiteSpace=wrap;html=1;fixedSize=1;" vertex="1" parent="1">
          <mxGeometry x="350" y="390" width="127" height="60" as="geometry" />
        </mxCell>
        <mxCell id="yWgnl33uVXO1nEddIgM3-9" value="No tiene bateria" style="text;html=1;align=center;verticalAlign=middle;resizable=0;points=[];autosize=1;strokeColor=none;fillColor=none;" vertex="1" parent="1">
          <mxGeometry x="550" y="400" width="100" height="20" as="geometry" />
        </mxCell>
        <mxCell id="yWgnl33uVXO1nEddIgM3-17" value="" style="edgeStyle=orthogonalEdgeStyle;rounded=0;orthogonalLoop=1;jettySize=auto;html=1;" edge="1" parent="1" target="yWgnl33uVXO1nEddIgM3-16">
          <mxGeometry relative="1" as="geometry">
            <mxPoint x="760" y="530" as="sourcePoint" />
          </mxGeometry>
        </mxCell>
        <mxCell id="yWgnl33uVXO1nEddIgM3-19" value="" style="edgeStyle=orthogonalEdgeStyle;rounded=0;orthogonalLoop=1;jettySize=auto;html=1;" edge="1" parent="1" source="yWgnl33uVXO1nEddIgM3-16" target="yWgnl33uVXO1nEddIgM3-18">
          <mxGeometry relative="1" as="geometry" />
        </mxCell>
        <mxCell id="yWgnl33uVXO1nEddIgM3-22" value="" style="edgeStyle=orthogonalEdgeStyle;rounded=0;orthogonalLoop=1;jettySize=auto;html=1;" edge="1" parent="1" source="yWgnl33uVXO1nEddIgM3-16" target="yWgnl33uVXO1nEddIgM3-21">
          <mxGeometry relative="1" as="geometry" />
        </mxCell>
        <mxCell id="yWgnl33uVXO1nEddIgM3-16" value="En cualquier lugar" style="shape=parallelogram;perimeter=parallelogramPerimeter;whiteSpace=wrap;html=1;fixedSize=1;" vertex="1" parent="1">
          <mxGeometry x="690" y="590" width="140" height="60" as="geometry" />
        </mxCell>
        <mxCell id="yWgnl33uVXO1nEddIgM3-18" value="Enchufle de la pared" style="shape=document;whiteSpace=wrap;html=1;boundedLbl=1;" vertex="1" parent="1">
          <mxGeometry x="920" y="580" width="120" height="80" as="geometry" />
        </mxCell>
        <mxCell id="yWgnl33uVXO1nEddIgM3-21" value="Bateria al 100%" style="whiteSpace=wrap;html=1;" vertex="1" parent="1">
          <mxGeometry x="700" y="720" width="120" height="60" as="geometry" />
        </mxCell>
        <mxCell id="yWgnl33uVXO1nEddIgM3-23" value="" style="endArrow=classic;html=1;exitX=0.5;exitY=1;exitDx=0;exitDy=0;" edge="1" parent="1" source="yWgnl33uVXO1nEddIgM3-21">
          <mxGeometry width="50" height="50" relative="1" as="geometry">
            <mxPoint x="620" y="780" as="sourcePoint" />
            <mxPoint x="420" y="910" as="targetPoint" />
            <Array as="points">
              <mxPoint x="760" y="910" />
              <mxPoint x="740" y="910" />
            </Array>
          </mxGeometry>
        </mxCell>
        <mxCell id="yWgnl33uVXO1nEddIgM3-42" value="" style="edgeStyle=orthogonalEdgeStyle;rounded=0;orthogonalLoop=1;jettySize=auto;html=1;" edge="1" parent="1" source="yWgnl33uVXO1nEddIgM3-26" target="yWgnl33uVXO1nEddIgM3-41">
          <mxGeometry relative="1" as="geometry" />
        </mxCell>
        <mxCell id="yWgnl33uVXO1nEddIgM3-26" value="Funciona?" style="shape=parallelogram;perimeter=parallelogramPerimeter;whiteSpace=wrap;html=1;fixedSize=1;" vertex="1" parent="1">
          <mxGeometry x="354" y="980" width="120" height="60" as="geometry" />
        </mxCell>
        <mxCell id="yWgnl33uVXO1nEddIgM3-27" value="Poner a cargar" style="shape=parallelogram;perimeter=parallelogramPerimeter;whiteSpace=wrap;html=1;fixedSize=1;" vertex="1" parent="1">
          <mxGeometry x="700" y="470" width="120" height="60" as="geometry" />
        </mxCell>
        <mxCell id="yWgnl33uVXO1nEddIgM3-28" value="" style="endArrow=classic;html=1;" edge="1" parent="1">
          <mxGeometry width="50" height="50" relative="1" as="geometry">
            <mxPoint x="470" y="1010" as="sourcePoint" />
            <mxPoint x="760" y="1060" as="targetPoint" />
            <Array as="points">
              <mxPoint x="760" y="1010" />
            </Array>
          </mxGeometry>
        </mxCell>
        <mxCell id="yWgnl33uVXO1nEddIgM3-29" value="No funciona" style="text;html=1;align=center;verticalAlign=middle;resizable=0;points=[];autosize=1;strokeColor=none;fillColor=none;" vertex="1" parent="1">
          <mxGeometry x="555" y="980" width="80" height="20" as="geometry" />
        </mxCell>
        <mxCell id="yWgnl33uVXO1nEddIgM3-32" value="" style="edgeStyle=orthogonalEdgeStyle;rounded=0;orthogonalLoop=1;jettySize=auto;html=1;" edge="1" parent="1" source="yWgnl33uVXO1nEddIgM3-30" target="yWgnl33uVXO1nEddIgM3-31">
          <mxGeometry relative="1" as="geometry" />
        </mxCell>
        <mxCell id="yWgnl33uVXO1nEddIgM3-30" value="Limpiar&amp;nbsp; y verificar que putas pasa&lt;br&gt;" style="shape=parallelogram;perimeter=parallelogramPerimeter;whiteSpace=wrap;html=1;fixedSize=1;" vertex="1" parent="1">
          <mxGeometry x="680" y="1060" width="155" height="60" as="geometry" />
        </mxCell>
        <mxCell id="yWgnl33uVXO1nEddIgM3-34" value="" style="edgeStyle=orthogonalEdgeStyle;rounded=0;orthogonalLoop=1;jettySize=auto;html=1;" edge="1" parent="1" source="yWgnl33uVXO1nEddIgM3-31" target="yWgnl33uVXO1nEddIgM3-33">
          <mxGeometry relative="1" as="geometry" />
        </mxCell>
        <mxCell id="yWgnl33uVXO1nEddIgM3-31" value="No encuentro error&amp;nbsp;" style="whiteSpace=wrap;html=1;" vertex="1" parent="1">
          <mxGeometry x="697.5" y="1200" width="120" height="60" as="geometry" />
        </mxCell>
        <mxCell id="yWgnl33uVXO1nEddIgM3-36" value="" style="edgeStyle=orthogonalEdgeStyle;rounded=0;orthogonalLoop=1;jettySize=auto;html=1;" edge="1" parent="1" source="yWgnl33uVXO1nEddIgM3-33" target="yWgnl33uVXO1nEddIgM3-35">
          <mxGeometry relative="1" as="geometry" />
        </mxCell>
        <mxCell id="yWgnl33uVXO1nEddIgM3-38" value="" style="edgeStyle=orthogonalEdgeStyle;rounded=0;orthogonalLoop=1;jettySize=auto;html=1;" edge="1" parent="1" source="yWgnl33uVXO1nEddIgM3-33" target="yWgnl33uVXO1nEddIgM3-37">
          <mxGeometry relative="1" as="geometry" />
        </mxCell>
        <mxCell id="yWgnl33uVXO1nEddIgM3-33" value="Buscar ayuda" style="whiteSpace=wrap;html=1;" vertex="1" parent="1">
          <mxGeometry x="697.5" y="1340" width="120" height="60" as="geometry" />
        </mxCell>
        <mxCell id="yWgnl33uVXO1nEddIgM3-35" value="Youtube" style="shape=document;whiteSpace=wrap;html=1;boundedLbl=1;" vertex="1" parent="1">
          <mxGeometry x="897.5" y="1330" width="120" height="80" as="geometry" />
        </mxCell>
        <mxCell id="yWgnl33uVXO1nEddIgM3-45" value="" style="edgeStyle=orthogonalEdgeStyle;rounded=0;orthogonalLoop=1;jettySize=auto;html=1;" edge="1" parent="1" source="yWgnl33uVXO1nEddIgM3-37">
          <mxGeometry relative="1" as="geometry">
            <mxPoint x="760" y="1510" as="targetPoint" />
            <Array as="points">
              <mxPoint x="558" y="1420" />
              <mxPoint x="760" y="1420" />
            </Array>
          </mxGeometry>
        </mxCell>
        <mxCell id="yWgnl33uVXO1nEddIgM3-37" value="Consultar con el provedor" style="whiteSpace=wrap;html=1;" vertex="1" parent="1">
          <mxGeometry x="497.5" y="1340" width="120" height="60" as="geometry" />
        </mxCell>
        <mxCell id="yWgnl33uVXO1nEddIgM3-50" value="" style="edgeStyle=orthogonalEdgeStyle;rounded=0;orthogonalLoop=1;jettySize=auto;html=1;" edge="1" parent="1" source="yWgnl33uVXO1nEddIgM3-41" target="yWgnl33uVXO1nEddIgM3-49">
          <mxGeometry relative="1" as="geometry" />
        </mxCell>
        <mxCell id="yWgnl33uVXO1nEddIgM3-41" value="Comprar otra" style="whiteSpace=wrap;html=1;" vertex="1" parent="1">
          <mxGeometry x="354" y="1610" width="120" height="60" as="geometry" />
        </mxCell>
        <mxCell id="yWgnl33uVXO1nEddIgM3-44" value="No funciona" style="whiteSpace=wrap;html=1;" vertex="1" parent="1">
          <mxGeometry x="700" y="1510" width="120" height="60" as="geometry" />
        </mxCell>
        <mxCell id="yWgnl33uVXO1nEddIgM3-46" value="" style="endArrow=classic;html=1;" edge="1" parent="1">
          <mxGeometry width="50" height="50" relative="1" as="geometry">
            <mxPoint x="700" y="1539.5" as="sourcePoint" />
            <mxPoint x="420" y="1540" as="targetPoint" />
            <Array as="points">
              <mxPoint x="542.5" y="1539.5" />
            </Array>
          </mxGeometry>
        </mxCell>
        <mxCell id="yWgnl33uVXO1nEddIgM3-47" value="No" style="text;html=1;align=center;verticalAlign=middle;resizable=0;points=[];autosize=1;strokeColor=none;fillColor=none;" vertex="1" parent="1">
          <mxGeometry x="384" y="1550" width="30" height="20" as="geometry" />
        </mxCell>
        <mxCell id="yWgnl33uVXO1nEddIgM3-49" value="FIN" style="ellipse;whiteSpace=wrap;html=1;" vertex="1" parent="1">
          <mxGeometry x="354" y="1750" width="120" height="60" as="geometry" />
        </mxCell>
      </root>
    </mxGraphModel>
  </diagram>
</mxfile>
